<?xml version="1.0" standalone="no"?>
<!DOCTYPE svg PUBLIC "-//W3C//DTD SVG 20010904//EN"
 "http://www.w3.org/TR/2001/REC-SVG-20010904/DTD/svg10.dtd">
<svg version="1.0" xmlns="http://www.w3.org/2000/svg"
 width="1490.000000pt" height="1060.000000pt" viewBox="0 0 1490.000000 1060.000000"
 preserveAspectRatio="xMidYMid meet">

<g transform="translate(0.000000,1060.000000) scale(0.100000,-0.100000)"
fill="#000000" stroke="none">
<path d="M340 10318 c0 -2 -7 -21 -15 -43 l-14 -40 -1 33 c0 20 -4 31 -10 27
-5 -3 -10 -16 -10 -28 0 -19 -3 -17 -22 13 -20 32 -23 33 -26 13 -2 -12 4 -33
13 -47 16 -24 16 -26 1 -32 -9 -3 -16 -13 -16 -21 0 -8 4 -11 10 -8 5 3 18 1
27 -4 17 -10 17 -10 1 -11 -21 0 -48 -38 -47 -65 0 -19 1 -19 11 1 11 23 54
48 68 39 12 -7 0 -45 -14 -45 -7 0 -23 -12 -37 -26 -20 -22 -24 -36 -24 -87 1
-103 56 -181 116 -162 26 9 20 28 -12 35 -20 5 -24 12 -22 39 1 26 -1 30 -13
20 -8 -6 -14 -21 -14 -33 -1 -19 -2 -18 -16 6 -32 61 -26 168 11 168 19 0 19
-7 0 -26 -16 -16 -11 -40 11 -48 22 -8 38 41 26 80 -8 26 -5 35 14 58 28 31
30 46 9 46 -22 0 -19 67 5 113 17 31 17 37 5 37 -8 0 -15 -1 -15 -2z"/>
<path d="M408 10313 c-22 -6 -48 -63 -48 -107 0 -26 6 -38 22 -47 18 -10 24
-8 35 7 15 21 17 43 4 63 -13 20 -33 3 -25 -21 4 -14 2 -18 -5 -14 -18 11 -13
51 8 70 24 22 53 14 81 -22 l21 -26 -20 -8 c-25 -9 -28 -36 -3 -34 13 1 18 -8
20 -39 6 -71 22 -64 22 11 0 46 -6 81 -18 104 -18 37 -67 69 -94 63z"/>
<path d="M14411 10274 c-36 -30 -51 -77 -51 -158 0 -67 17 -67 22 -1 2 31 7
40 21 39 21 -2 22 19 2 36 -20 16 -19 22 5 48 39 41 90 18 90 -40 0 -17 -3
-28 -7 -24 -4 4 -8 15 -8 23 0 9 -6 18 -12 20 -19 7 -17 -73 2 -81 21 -8 45
21 45 53 0 60 -32 111 -69 111 -5 0 -23 -12 -40 -26z"/>
<path d="M14520 10296 c0 -2 7 -20 15 -39 20 -49 20 -107 0 -107 -14 0 -14 -3
0 -30 17 -34 40 -41 30 -10 -10 30 30 26 60 -6 20 -21 25 -23 25 -10 0 9 -11
28 -24 41 -25 25 -25 38 0 28 20 -8 17 24 -3 36 -16 9 -16 11 -2 28 22 25 30
51 19 58 -5 3 -19 -9 -30 -27 -17 -28 -20 -30 -20 -11 0 12 -4 25 -10 28 -6 4
-10 -7 -10 -27 l-1 -33 -14 40 c-8 22 -15 41 -15 43 0 4 -20 2 -20 -2z"/>
<path d="M527 10263 c-13 -13 -7 -31 10 -29 10 0 22 -9 28 -21 5 -13 13 -23
17 -23 5 0 8 -18 8 -40 0 -28 -4 -40 -14 -40 -8 0 -17 6 -20 13 -3 6 -4 1 -3
-13 2 -20 7 -25 27 -24 15 1 32 -8 43 -22 28 -36 61 -31 82 12 21 44 13 58
-10 15 -8 -17 -22 -31 -30 -31 -20 0 -44 27 -51 58 -3 15 -8 33 -10 41 -3 8 0
17 6 21 15 9 -7 68 -30 80 -22 12 -44 13 -53 3z"/>
<path d="M14298 10238 c-23 -17 -42 -69 -29 -77 15 -9 -4 -80 -26 -103 -24
-23 -51 -15 -59 18 -3 13 -10 24 -15 24 -10 0 6 -47 23 -67 18 -22 46 -15 70
17 13 19 25 27 31 21 15 -15 37 -1 37 23 0 16 -2 18 -9 7 -14 -22 -31 -3 -31
35 0 19 4 33 9 30 5 -3 11 8 15 24 4 22 11 30 27 30 26 0 20 24 -7 28 -10 1
-27 -3 -36 -10z"/>
<path d="M646 10184 c-3 -9 -6 -25 -6 -37 0 -21 1 -21 13 2 6 14 17 26 23 28
23 8 22 -26 -1 -57 -14 -18 -22 -37 -19 -42 4 -5 14 4 25 21 10 16 29 37 43
46 22 14 29 15 53 3 15 -7 37 -30 48 -50 17 -31 18 -43 9 -87 -10 -47 -9 -51
7 -46 27 9 9 -44 -23 -68 -32 -24 -63 -16 -54 13 3 11 9 28 12 39 4 13 0 20
-15 24 -11 2 -22 0 -25 -7 -3 -7 -5 -7 -5 0 -1 5 5 19 13 29 14 19 15 19 36
-5 l21 -25 -5 39 c-3 21 -13 44 -23 52 -28 21 -63 -23 -63 -79 0 -27 -3 -37
-9 -28 -6 10 -10 10 -16 1 -5 -8 -11 -5 -22 9 -16 24 -55 28 -72 8 -6 -8 -14
-28 -17 -45 -11 -56 45 -112 61 -61 8 24 -3 39 -14 20 -10 -16 -31 -6 -31 14
0 9 6 12 15 9 11 -5 15 1 15 20 0 31 24 35 39 7 7 -12 7 -28 -1 -49 -7 -17 -9
-34 -5 -38 9 -9 37 15 37 32 0 20 12 17 39 -11 33 -35 86 -37 110 -4 17 24 28
24 34 2 4 -15 6 -15 12 5 8 25 20 29 28 8 9 -24 54 -48 76 -41 48 15 71 155
31 195 -11 11 -24 20 -30 20 -18 0 -50 -39 -50 -61 0 -26 18 -59 32 -59 7 0 8
14 4 39 -4 28 -2 42 9 51 21 18 42 -28 26 -58 -6 -11 -11 -32 -11 -46 0 -32
-36 -59 -61 -45 -23 12 -49 60 -49 89 0 12 9 35 21 51 18 26 19 30 5 45 -9 8
-16 21 -16 29 0 7 -8 11 -17 9 -12 -3 -25 7 -38 28 -11 17 -32 40 -46 50 -24
18 -29 18 -62 5 -33 -14 -35 -14 -40 4 -6 23 -42 25 -51 3z"/>
<path d="M14184 10169 c-18 -20 -18 -20 8 -14 24 6 28 3 37 -27 l9 -33 1 36
c1 32 -13 59 -29 59 -4 0 -15 -9 -26 -21z"/>
<path d="M14066 10139 c-19 -16 -38 -39 -41 -51 -5 -13 -13 -18 -26 -15 -11 3
-19 0 -19 -8 0 -7 -6 -18 -14 -25 -16 -13 -11 -39 12 -57 18 -15 11 -69 -13
-107 -32 -49 -85 -25 -85 38 0 14 -4 28 -10 31 -14 9 -12 41 4 54 22 18 36 -9
29 -53 -5 -31 -3 -38 8 -34 25 8 35 56 18 86 -19 34 -42 39 -68 13 -28 -28
-29 -113 -2 -157 27 -45 57 -49 93 -13 16 16 31 29 33 29 1 0 6 -10 9 -22 l7
-23 10 25 c10 24 11 24 21 5 16 -28 28 -35 64 -35 21 0 41 9 59 28 16 15 30
22 32 16 8 -24 32 -49 39 -41 5 4 3 22 -4 39 -8 21 -8 37 -1 49 13 25 39 24
39 -1 0 -11 7 -20 15 -20 17 0 20 -26 4 -35 -6 -4 -17 1 -24 11 -14 18 -14 17
-15 -7 0 -37 29 -47 52 -19 21 26 23 58 7 94 -20 43 -71 46 -84 5 -5 -15 -10
-17 -20 -9 -10 8 -14 7 -18 -2 -3 -7 -6 4 -6 24 -2 69 -32 109 -65 85 -20 -15
-36 -94 -17 -83 7 5 16 17 20 28 7 19 8 19 24 3 9 -9 17 -24 16 -33 0 -11 -2
-12 -6 -4 -6 16 -32 15 -39 -2 -3 -8 0 -24 6 -36 10 -18 9 -25 -3 -37 -21 -21
-55 -1 -73 42 -18 43 -18 50 0 36 12 -10 14 -2 13 58 -2 63 1 73 23 95 45 43
67 43 110 -3 22 -23 42 -41 45 -41 12 0 -31 63 -58 86 -38 32 -59 30 -101 -7z"/>
<path d="M428 10148 c-3 -7 4 -26 15 -43 10 -16 16 -22 13 -12 -3 10 -6 30 -6
43 0 25 -15 33 -22 12z"/>
<path d="M470 10137 c0 -28 29 -110 46 -128 9 -10 29 -19 43 -19 28 0 71 25
71 41 0 6 -10 3 -22 -5 -29 -21 -35 -20 -41 6 -5 18 -9 19 -21 9 -13 -11 -18
-7 -36 21 -11 18 -20 45 -20 61 0 15 -4 27 -10 27 -5 0 -10 -6 -10 -13z"/>
<path d="M14437 10135 c-10 -38 -19 -80 -15 -75 24 31 34 58 28 75 l-7 20 -6
-20z"/>
<path d="M14396 10109 c-4 -20 -17 -51 -27 -69 -19 -31 -21 -31 -34 -14 -13
18 -14 17 -20 -9 -8 -31 -17 -34 -40 -11 -9 9 -19 13 -23 10 -10 -10 39 -46
63 -46 37 0 64 29 81 86 8 30 14 62 11 72 -2 10 -7 3 -11 -19z"/>
<path d="M363 10113 c-9 -3 -13 -26 -13 -64 0 -50 4 -63 28 -90 23 -26 33 -31
55 -25 24 6 27 11 27 52 0 89 -45 148 -97 127z"/>
<path d="M14457 10082 c-34 -37 -49 -136 -25 -160 19 -19 42 -14 69 14 20 22
24 35 24 92 0 64 -1 67 -26 70 -15 2 -32 -5 -42 -16z"/>
<path d="M14559 10053 c-14 -37 -2 -83 22 -83 14 0 19 7 19 25 0 14 -4 25 -10
25 -5 0 -10 5 -10 10 0 6 7 10 15 10 36 0 43 -106 12 -167 l-14 -26 -6 32 c-4
17 -11 31 -17 31 -6 0 -8 -10 -5 -22 6 -28 -4 -44 -29 -49 -39 -8 -29 -29 12
-29 51 0 76 29 93 104 14 63 6 119 -22 147 -26 26 -48 24 -60 -8z"/>
<path d="M470 10033 c0 -12 4 -32 8 -45 4 -13 5 -39 2 -58 l-5 -36 -43 9 c-33
6 -49 17 -70 46 -22 31 -30 35 -40 25 -16 -18 -15 -24 4 -24 9 0 32 -17 51
-37 19 -21 44 -47 54 -58 21 -23 26 -40 7 -29 -8 5 -9 0 -5 -17 4 -13 7 -32 7
-42 0 -16 2 -17 15 -3 8 8 15 19 15 25 0 6 5 11 11 11 5 0 7 5 4 10 -3 6 3 10
14 10 17 0 21 6 21 36 0 24 4 33 12 28 8 -5 9 0 5 15 -3 13 -3 20 1 17 3 -4
11 4 18 16 11 20 9 24 -17 40 -16 10 -38 32 -49 50 -17 29 -20 30 -20 11z m60
-87 c0 -6 -7 -2 -15 8 -8 11 -15 25 -15 30 0 6 7 2 15 -8 8 -11 15 -25 15 -30z
m-20 -26 c0 -13 -1 -13 -10 0 -5 8 -10 22 -10 30 0 13 1 13 10 0 5 -8 10 -22
10 -30z m-46 -56 c9 -24 7 -28 -9 -14 -17 14 -20 30 -6 30 5 0 12 -7 15 -16z"/>
<path d="M14385 9998 c-17 -26 -30 -38 -63 -55 -7 -3 22 -73 30 -73 4 0 8 -16
8 -36 0 -31 3 -36 19 -31 14 3 18 1 14 -9 -3 -8 0 -14 6 -14 6 0 11 -6 11 -14
0 -8 7 -16 15 -20 8 -3 15 0 15 7 0 7 3 23 7 36 4 17 3 22 -5 17 -19 -12 -14
7 8 29 11 11 32 35 47 53 14 19 37 38 51 43 20 8 22 12 12 24 -11 13 -16 11
-37 -20 -28 -42 -51 -55 -94 -55 l-32 0 6 75 c4 41 6 75 4 75 -1 -1 -11 -15
-22 -32z m-10 -49 c-5 -15 -4 -19 4 -15 6 4 11 1 11 -8 0 -8 -4 -18 -10 -21
-5 -3 -10 1 -10 9 0 9 -5 16 -10 16 -7 0 -7 6 0 20 14 26 23 26 15 -1z m51
-117 c-14 -14 -16 -14 -16 -1 0 20 23 44 29 28 2 -6 -4 -18 -13 -27z"/>
<path d="M330 9901 c0 -5 11 -16 23 -24 34 -22 53 -72 36 -93 -11 -14 -11 -18
4 -29 19 -14 22 -41 7 -79 -5 -15 -6 -26 -1 -26 5 0 13 15 17 33 7 33 13 179
6 159 -2 -7 -14 2 -25 19 -21 31 -67 58 -67 40z"/>
<path d="M14501 9864 c-17 -14 -31 -33 -31 -42 0 -12 -3 -13 -8 -5 -8 13 -7
-80 3 -144 3 -24 10 -43 15 -43 6 0 5 11 0 26 -15 38 -12 65 7 79 15 11 15 15
4 29 -17 20 1 68 35 95 13 11 24 22 24 25 0 13 -20 5 -49 -20z"/>
<path d="M260 9778 c0 -37 7 -63 22 -88 16 -25 23 -31 25 -19 6 24 36 13 56
-21 21 -36 22 -89 1 -118 -9 -13 -13 -26 -10 -29 9 -9 34 28 40 61 7 32 -9
102 -24 111 -6 4 -7 17 -4 31 9 35 -3 74 -23 74 -13 0 -14 -3 -5 -12 7 -7 12
-22 12 -35 0 -18 -6 -23 -25 -23 -17 0 -23 4 -19 15 4 8 -1 17 -10 21 -10 4
-16 18 -16 39 0 19 -4 37 -10 40 -6 4 -10 -14 -10 -47z"/>
<path d="M14600 9771 c0 -26 -5 -41 -16 -45 -9 -4 -14 -13 -10 -21 4 -11 -2
-15 -19 -15 -27 0 -34 25 -15 60 9 16 8 18 -5 14 -16 -7 -25 -34 -24 -74 1
-14 -6 -45 -15 -68 -19 -51 -13 -102 15 -128 22 -20 25 -7 4 20 -8 11 -15 29
-14 40 0 14 9 3 25 -31 30 -62 33 -140 9 -200 -19 -46 -43 -58 -76 -35 -21 15
-22 14 -17 -15 5 -34 -9 -36 -29 -4 -16 26 -25 103 -14 121 9 13 12 12 24 -4
13 -18 15 -18 25 11 8 25 7 34 -6 47 -16 16 -16 17 1 10 25 -9 31 -47 13 -83
-15 -27 -15 -31 -1 -31 25 0 48 46 42 86 -8 46 -23 64 -54 64 -22 0 -24 2 -13
15 9 11 9 19 2 28 -7 8 -6 18 4 31 16 23 19 93 4 130 -11 29 -41 34 -59 12
-16 -19 -10 -88 8 -94 11 -4 12 0 6 14 -12 30 -11 57 4 62 9 3 11 -1 6 -17 -4
-14 -1 -23 9 -27 20 -8 21 -57 2 -73 -10 -9 -15 -8 -20 4 -3 8 -10 15 -16 15
-15 0 -12 -47 5 -63 13 -14 13 -20 -1 -54 -22 -52 -23 -169 -1 -210 14 -27 15
-32 2 -37 -19 -7 -19 -21 0 -40 14 -14 14 -18 1 -38 -53 -81 -8 -236 62 -214
37 12 54 89 30 141 -20 44 -58 28 -58 -26 0 -20 15 -26 25 -9 11 17 22 11 27
-15 3 -14 0 -32 -6 -41 -11 -14 -13 -14 -25 0 -8 9 -19 16 -27 16 -34 0 -46
89 -19 140 24 47 65 61 65 23 0 -8 6 -20 13 -28 11 -11 17 -7 31 20 10 18 16
38 12 43 -3 6 8 40 25 77 29 61 31 73 27 143 -3 48 -1 87 7 107 12 30 10 50
-7 72 -10 13 -38 7 -38 -9 0 -5 4 -6 10 -3 16 10 32 -37 22 -65 -9 -24 -9 -23
-21 13 -7 20 -20 41 -28 46 -14 8 -15 13 -3 41 16 38 52 56 61 31 5 -12 11 -8
28 19 22 37 31 140 11 140 -5 0 -10 -18 -10 -39z"/>
<path d="M446 9718 c-20 -29 -21 -107 -1 -135 10 -14 12 -24 5 -28 -6 -4 -8
-15 -5 -26 5 -14 2 -19 -13 -19 -25 0 -40 -19 -48 -58 -7 -37 12 -92 32 -92
16 0 19 36 4 45 -17 11 -11 41 13 61 12 10 16 12 10 4 -15 -16 -17 -66 -4 -75
6 -3 14 3 20 12 9 16 12 16 21 3 13 -18 7 -78 -11 -116 -18 -37 -38 -43 -32
-9 6 27 1 30 -27 15 -26 -14 -46 -4 -64 35 -23 48 -21 146 5 206 28 65 18 74
-12 12 -20 -39 -24 -64 -24 -133 0 -74 4 -93 27 -138 15 -29 25 -58 22 -66 -3
-7 3 -28 14 -45 l19 -32 17 36 c17 34 19 36 39 22 53 -35 61 -158 11 -177 -13
-5 -24 -14 -24 -20 0 -16 -27 -12 -34 6 -7 19 3 64 15 64 5 0 9 -4 9 -10 0 -5
7 -10 15 -10 18 0 20 41 3 58 -19 19 -34 14 -46 -13 -17 -37 -15 -97 4 -123
21 -31 61 -26 88 11 27 36 28 127 3 175 -16 29 -16 34 -2 48 19 20 19 30 0 38
-14 5 -14 9 1 38 22 42 23 149 1 200 -14 34 -14 39 3 74 22 43 17 63 -10 39
-10 -9 -24 -14 -29 -10 -16 9 -13 72 3 78 9 4 12 14 9 26 -3 12 -1 21 5 21 16
0 23 -30 11 -52 -12 -22 -6 -34 10 -23 14 8 14 60 1 86 -14 25 -35 24 -54 -3z"/>
<path d="M311 9617 c-14 -14 -14 -84 0 -92 7 -5 8 5 3 30 -6 32 -4 37 15 42
11 3 21 9 21 13 0 14 -27 19 -39 7z"/>
<path d="M6770 9624 c-230 -6 -996 -35 -1015 -38 -11 -2 736 -3 1660 -3 924 0
1662 2 1640 4 -22 1 -193 10 -380 18 -314 15 -1597 27 -1905 19z"/>
<path d="M331 9075 c0 -16 4 -50 10 -75 19 -79 19 -84 4 -107 -19 -28 -19 -33
0 -33 9 0 19 10 23 21 8 20 11 19 45 -21 50 -59 78 -123 89 -205 12 -86 -3
-142 -44 -165 -25 -13 -31 -13 -55 0 -41 23 -61 85 -44 140 13 43 35 60 53 42
9 -9 9 -18 0 -34 -18 -38 -23 -65 -16 -93 5 -22 11 -26 38 -23 29 3 31 6 33
46 1 24 -5 55 -13 70 -8 15 -14 32 -14 38 0 6 -9 19 -20 29 -25 22 -25 41 -2
54 16 10 16 12 1 24 -9 7 -20 27 -24 46 -8 36 -21 31 -27 -9 -2 -14 -9 -24
-16 -22 -21 4 -25 -25 -7 -52 16 -24 16 -29 1 -66 -21 -54 -20 -125 4 -178 19
-41 19 -45 3 -75 -24 -46 -30 -250 -10 -335 15 -63 13 -96 -6 -120 -13 -16 -5
-24 17 -16 9 3 16 13 16 22 0 24 36 -12 80 -80 87 -134 72 -318 -27 -318 -39
0 -62 29 -70 87 -6 44 20 117 39 111 20 -7 35 -37 22 -46 -14 -9 -25 -68 -18
-97 4 -18 12 -23 35 -23 16 1 29 4 30 7 7 37 6 80 -1 96 -5 11 -16 37 -24 58
-8 20 -20 37 -25 37 -17 0 -13 28 7 39 16 10 16 12 1 24 -9 7 -20 27 -24 45
-8 36 -25 34 -25 -4 0 -15 -6 -24 -15 -24 -24 0 -28 -26 -10 -54 16 -24 16
-29 1 -66 -21 -54 -20 -125 4 -178 19 -41 19 -45 3 -75 -25 -46 -30 -238 -9
-336 14 -65 14 -76 0 -102 -14 -27 -13 -29 6 -29 11 0 20 7 20 15 0 8 2 15 5
15 14 0 69 -72 96 -128 27 -53 32 -74 33 -141 1 -66 -3 -84 -20 -108 -43 -58
-115 -35 -130 43 -13 72 42 165 61 103 4 -12 3 -24 -2 -28 -15 -10 -23 -69
-14 -94 9 -22 41 -31 56 -15 11 11 15 73 6 93 -4 11 -16 37 -24 58 -9 20 -21
37 -27 37 -16 0 -12 30 5 36 19 8 19 34 0 34 -8 0 -15 9 -15 19 0 28 -11 52
-21 45 -5 -3 -9 -16 -9 -30 0 -17 -5 -24 -20 -24 -25 0 -26 -26 -3 -52 16 -18
16 -22 0 -66 -22 -61 -22 -129 2 -174 18 -36 18 -38 -2 -95 -17 -50 -19 -75
-14 -188 3 -71 10 -145 16 -164 8 -25 7 -42 -4 -67 -12 -29 -12 -34 0 -34 8 0
18 8 23 17 9 15 14 12 42 -18 18 -19 46 -62 62 -97 38 -78 45 -199 15 -245
-61 -94 -169 17 -123 126 11 27 21 38 33 35 19 -3 32 -48 15 -48 -15 0 -24
-64 -13 -93 9 -22 14 -24 38 -18 23 6 28 13 30 47 3 39 -34 135 -56 149 -16 9
-13 35 4 35 19 0 19 14 2 32 -8 7 -17 26 -21 41 -8 34 -26 35 -26 1 0 -17 -6
-28 -19 -31 -25 -6 -35 -32 -17 -39 21 -8 29 -53 14 -71 -21 -25 -17 -163 5
-196 17 -26 17 -28 0 -60 -15 -27 -18 -57 -18 -182 0 -96 5 -163 13 -186 13
-38 4 -85 -21 -101 -8 -5 -4 -8 10 -8 12 0 26 8 32 17 9 17 11 16 33 -4 97
-91 138 -304 72 -370 -30 -29 -59 -29 -89 1 -42 42 -43 144 -2 170 25 16 44
-7 29 -36 -18 -38 -23 -65 -16 -92 5 -20 12 -26 35 -26 16 0 29 3 30 8 7 54 5
87 -7 109 -7 16 -14 33 -14 39 0 6 -9 19 -20 29 -25 22 -25 41 -2 54 15 10 16
12 1 23 -9 7 -19 25 -23 41 -3 15 -10 27 -16 27 -5 0 -10 -12 -12 -27 -2 -16
-9 -28 -16 -28 -24 0 -31 -26 -11 -46 21 -21 25 -49 8 -66 -6 -6 -13 -37 -16
-70 -4 -47 -1 -70 16 -107 20 -46 20 -49 3 -79 -14 -26 -17 -59 -17 -182 0
-98 5 -163 13 -187 11 -32 11 -41 -3 -68 -9 -18 -15 -34 -12 -36 9 -9 37 9 37
25 1 21 75 -60 100 -109 42 -83 48 -213 13 -267 -13 -20 -23 -23 -57 -21 -36
3 -43 7 -60 41 -21 44 -16 116 11 143 14 14 17 14 32 0 12 -13 13 -20 5 -34
-19 -30 -26 -80 -14 -101 10 -20 59 -30 61 -13 7 50 5 83 -7 112 -27 62 -37
80 -46 80 -15 0 -8 29 9 39 17 10 17 12 2 24 -9 7 -20 27 -24 46 -8 36 -21 31
-27 -9 -2 -14 -9 -24 -16 -22 -21 4 -25 -25 -7 -52 16 -24 16 -28 0 -71 -21
-54 -16 -156 9 -184 14 -16 14 -22 -5 -77 -19 -52 -21 -74 -16 -194 3 -74 10
-148 16 -163 8 -22 8 -36 -4 -64 -19 -44 -10 -56 16 -24 l20 24 30 -34 c67
-77 108 -205 94 -293 -19 -114 -133 -115 -150 -1 -12 74 41 155 60 94 4 -12 3
-24 -2 -28 -15 -10 -23 -69 -14 -94 6 -15 17 -23 30 -22 29 2 35 11 38 51 2
37 -40 144 -57 144 -17 0 -11 28 7 39 17 10 17 12 2 24 -9 7 -20 27 -24 45 -7
33 -25 35 -25 3 0 -10 -10 -25 -23 -34 -22 -15 -22 -15 -4 -46 18 -30 18 -35
3 -72 -21 -53 -20 -126 3 -171 18 -36 18 -38 -1 -95 -17 -50 -20 -77 -15 -188
2 -71 9 -142 16 -158 8 -21 8 -37 -3 -67 -11 -33 -11 -40 0 -40 7 0 18 8 23
18 9 15 13 13 42 -18 17 -19 44 -63 61 -98 25 -52 30 -76 32 -142 1 -65 -2
-83 -20 -107 -44 -60 -120 -29 -131 54 -7 51 19 116 44 111 18 -3 32 -48 15
-48 -14 0 -22 -67 -12 -94 5 -15 16 -22 29 -21 28 2 33 9 38 51 4 37 -33 134
-56 149 -15 9 -14 21 6 40 15 16 15 18 1 26 -9 5 -19 23 -23 39 -8 37 -25 40
-25 4 0 -17 -6 -28 -20 -31 -24 -6 -26 -35 -5 -53 18 -15 20 -41 4 -57 -6 -6
-14 -42 -16 -80 -4 -54 0 -76 15 -105 19 -36 19 -38 1 -90 -10 -29 -18 -75
-18 -103 -1 -60 31 -135 59 -142 26 -7 28 -53 3 -53 -12 0 -14 -3 -6 -11 6 -6
9 -28 6 -50 -6 -44 12 -99 33 -99 19 0 38 44 30 67 -7 17 -8 17 -21 0 -13 -18
-14 -18 -25 3 -13 25 -4 60 16 60 8 0 14 -4 14 -8 0 -5 11 -14 24 -20 31 -14
42 -63 27 -120 -16 -57 -71 -93 -71 -46 0 9 -6 22 -14 29 -11 12 -15 10 -27
-13 -7 -15 -14 -37 -15 -48 0 -12 -12 -43 -25 -70 -35 -71 -34 -198 0 -268 14
-28 26 -45 28 -39 3 7 -3 25 -11 42 -22 41 -19 51 4 22 24 -28 26 -81 5 -121
-15 -30 -55 -42 -55 -18 0 7 -10 3 -22 -10 -17 -17 -23 -37 -26 -88 -3 -48 -1
-65 7 -60 6 4 11 22 11 41 0 21 6 35 16 39 9 3 14 13 11 20 -6 16 11 26 31 18
15 -5 16 -44 0 -60 -9 -9 -8 -12 5 -12 19 0 32 39 23 68 -4 10 0 32 9 48 8 16
18 43 21 61 8 40 -21 103 -47 103 -17 0 -19 8 -19 64 0 110 30 157 86 136 25
-10 26 -9 22 14 -4 22 -3 24 13 15 30 -16 49 -108 29 -139 -9 -13 -12 -13 -21
3 -6 9 -14 15 -20 12 -13 -9 -11 -59 4 -75 6 -8 2 -6 -11 4 -23 20 -29 50 -12
61 15 9 12 45 -4 45 -20 0 -39 -55 -32 -92 8 -39 23 -58 48 -58 15 0 18 -5 13
-19 -3 -11 -1 -22 5 -26 7 -4 5 -14 -5 -28 -31 -45 -10 -157 30 -157 29 0 50
90 24 105 -16 11 -22 -1 -10 -23 12 -22 5 -52 -11 -52 -6 0 -8 9 -5 21 3 12 0
22 -9 26 -16 6 -19 69 -3 78 5 4 19 -1 30 -11 18 -16 19 -16 19 7 0 14 -7 34
-15 46 -13 19 -13 25 1 60 22 51 23 158 2 200 -14 28 -14 34 -2 44 13 10 12
14 -1 30 -15 16 -15 20 1 51 26 48 25 139 -2 175 -12 15 -31 29 -43 31 -27 4
-27 17 4 54 43 51 30 173 -18 166 -18 -2 -23 -10 -25 -42 -4 -48 13 -69 34
-42 13 19 14 19 14 -6 0 -14 -7 -31 -15 -38 -11 -9 -19 -7 -40 14 -20 20 -25
35 -25 73 0 66 27 108 77 120 53 12 73 54 73 154 0 114 -36 220 -108 317 -34
45 -21 51 23 10 22 -20 39 -47 44 -68 7 -34 28 -45 24 -14 0 9 5 13 12 10 21
-8 26 6 11 29 -9 14 -11 27 -5 36 14 22 11 42 -5 36 -8 -3 -17 -1 -19 6 -3 7
-8 0 -12 -15 -7 -26 -8 -27 -34 -14 -59 31 -100 96 -115 179 l-7 39 35 -36
c38 -37 47 -66 21 -66 -17 0 -20 -16 -5 -25 15 -9 40 14 40 37 0 11 11 33 25
50 28 33 33 83 14 137 -20 56 -59 37 -59 -29 0 -34 15 -47 35 -30 12 10 15 9
15 -7 0 -19 -17 -43 -32 -43 -4 0 -16 10 -28 22 -22 24 -27 88 -11 131 23 59
85 79 97 31 8 -30 33 -29 45 2 5 14 2 32 -7 50 -12 23 -13 37 -3 77 25 105 -6
234 -86 352 -41 62 -42 64 -15 50 36 -19 70 -62 70 -89 0 -11 4 -27 9 -35 7
-11 10 -9 16 8 3 11 13 21 22 21 11 0 13 5 7 18 -4 9 -7 34 -6 56 1 33 0 36
-13 26 -12 -10 -15 -9 -16 6 0 14 -4 12 -13 -9 l-12 -27 -45 29 c-48 30 -80
86 -94 164 l-7 37 36 -36 c38 -38 48 -74 19 -74 -13 0 -14 -3 -6 -11 19 -19
43 -2 43 31 0 17 6 33 14 36 38 15 47 137 13 172 -23 22 -47 -1 -47 -44 0 -38
14 -51 36 -33 14 11 15 9 12 -17 -2 -21 -9 -30 -25 -32 -52 -8 -73 105 -30
169 32 47 68 51 84 8 10 -26 15 -30 27 -20 22 18 25 47 9 77 -11 23 -12 37 -2
77 24 101 -7 235 -81 345 -21 31 -37 59 -35 61 10 10 75 -53 81 -77 12 -54 16
-62 25 -56 6 3 8 12 5 20 -3 9 2 14 14 14 23 0 26 13 6 33 -9 9 -11 19 -5 28
5 8 9 22 9 33 0 15 -3 16 -14 7 -11 -9 -15 -9 -19 1 -4 8 -8 5 -12 -9 -4 -13
-10 -23 -13 -23 -13 0 -82 53 -95 74 -19 28 -47 115 -47 140 1 19 2 18 15 -6
8 -15 24 -29 35 -33 26 -8 28 -55 3 -55 -13 0 -14 -3 -6 -11 18 -18 43 -2 43
27 0 15 10 35 23 46 19 17 22 30 22 85 0 52 -4 67 -19 79 -26 19 -46 1 -46
-42 0 -38 14 -51 36 -33 14 11 15 9 12 -17 -4 -38 -39 -45 -62 -12 -31 44 -11
154 32 177 33 18 47 13 59 -19 8 -20 16 -28 26 -24 23 8 28 44 11 81 -13 26
-14 39 -5 64 30 87 -2 237 -74 345 -25 37 -45 69 -45 71 0 9 54 -30 72 -51 10
-12 18 -30 18 -41 0 -11 5 -27 10 -35 8 -13 11 -11 16 8 4 12 13 22 21 22 14
0 14 3 0 23 -10 15 -12 29 -6 38 14 22 11 42 -6 35 -8 -3 -15 0 -15 7 0 7 -6
3 -12 -8 -6 -11 -12 -21 -14 -23 -7 -9 -66 32 -89 63 -27 35 -55 112 -55 149
1 20 1 20 13 -2 7 -12 23 -29 35 -38 26 -18 30 -54 5 -54 -13 0 -14 -3 -6 -11
17 -17 43 -3 43 23 0 12 10 32 21 45 26 27 36 104 20 146 -8 21 -17 28 -34 25
-17 -2 -23 -10 -25 -38 -1 -19 2 -42 7 -50 9 -13 12 -12 26 5 15 19 15 19 13
-10 -2 -22 -9 -31 -25 -33 -46 -7 -69 81 -39 153 25 58 80 74 91 25 7 -30 28
-40 41 -19 10 17 7 68 -6 84 -8 9 -8 26 1 60 25 99 -7 236 -81 347 -22 33 -38
63 -36 65 9 9 86 -70 86 -87 0 -26 10 -50 22 -50 5 0 8 8 6 17 -2 10 3 18 10
19 6 1 15 2 18 3 4 0 0 11 -8 24 -11 16 -12 28 -5 45 11 25 1 44 -13 23 -6
-11 -9 -10 -12 5 -4 16 -6 14 -12 -8 l-8 -26 -34 20 c-49 29 -80 71 -98 132
-23 77 -20 81 20 41 33 -34 43 -73 16 -67 -15 3 -16 -14 -2 -23 15 -9 40 14
40 37 0 11 11 33 25 50 43 51 30 173 -18 166 -18 -2 -23 -10 -25 -42 -4 -46
10 -65 33 -46 13 10 15 9 15 -8 0 -11 -7 -26 -16 -33 -14 -11 -20 -10 -40 14
-46 53 -24 165 36 185 30 11 32 10 43 -18 16 -43 41 -35 45 14 2 23 -2 42 -9
46 -9 6 -9 18 0 53 29 117 -9 270 -97 385 -29 38 -15 42 27 6 18 -14 35 -42
41 -65 6 -21 16 -39 21 -39 6 0 9 6 6 14 -3 8 2 16 14 19 17 5 19 9 10 25 -6
11 -8 35 -4 54 6 30 5 32 -10 19 -15 -12 -17 -11 -18 5 0 15 -4 12 -13 -8
l-12 -27 -36 22 c-49 30 -73 62 -92 127 -23 77 -20 82 19 43 36 -36 45 -68 23
-76 -7 -2 -10 -8 -6 -12 15 -16 38 5 38 34 0 17 6 34 14 38 34 21 46 91 25
152 -20 56 -59 37 -59 -29 0 -34 15 -47 35 -30 12 10 15 9 15 -3 0 -48 -27
-60 -60 -27 -35 35 -19 154 24 182 25 17 56 8 62 -18 9 -34 38 -28 42 10 2 16
-2 39 -8 51 -9 16 -9 32 -1 61 31 110 -5 250 -95 377 l-35 48 30 -15 c34 -18
71 -66 71 -93 0 -26 16 -48 24 -34 4 6 4 16 1 21 -3 6 3 10 14 10 24 0 27 13
7 33 -9 9 -11 19 -5 28 5 8 9 22 9 33 0 15 -3 16 -15 6 -12 -10 -15 -9 -16 6
0 15 -3 13 -13 -8 l-12 -27 -39 22 c-47 26 -90 99 -99 167 -5 37 -4 41 5 24 6
-12 22 -27 35 -35 29 -15 34 -59 7 -59 -13 0 -14 -3 -6 -11 18 -18 43 -2 43
27 0 15 10 34 23 44 19 16 22 28 22 84 0 48 -4 70 -17 82 -24 24 -48 3 -48
-42 0 -38 14 -51 35 -34 12 10 15 9 15 -3 0 -28 -12 -47 -31 -47 -64 0 -64
165 0 200 32 17 46 12 58 -20 14 -37 26 -38 42 -4 9 20 8 32 -5 59 -12 27 -13
41 -5 72 29 102 -7 254 -84 358 -37 50 -40 58 -18 47 32 -17 73 -64 73 -83 0
-26 11 -50 21 -44 4 3 6 12 2 20 -3 10 2 15 16 15 25 0 27 12 6 30 -11 9 -12
17 -5 30 6 10 10 26 10 36 0 13 -3 14 -14 5 -11 -9 -15 -9 -19 1 -4 8 -8 5
-12 -9 -9 -28 -10 -28 -60 0 -41 23 -74 74 -93 147 l-10 35 -1 -30z m117 -479
c2 -9 1 -24 -3 -33 -10 -27 -39 8 -30 36 8 25 28 23 33 -3z m-17 -153 c-54
-27 -73 -66 -68 -143 3 -38 1 -57 -4 -45 -33 82 19 206 86 205 15 0 11 -5 -14
-17z m86 -35 c-3 -7 -5 -2 -5 12 0 14 2 19 5 13 2 -7 2 -19 0 -25z m-86 -131
c-13 -13 -15 1 -4 30 7 17 8 17 11 -1 2 -10 -1 -23 -7 -29z m17 -600 c2 -19
-1 -27 -12 -27 -20 0 -29 16 -21 41 9 27 29 19 33 -14z m-25 -147 c-49 -29
-66 -72 -60 -144 3 -36 2 -53 -3 -41 -13 32 -11 103 4 139 15 35 50 66 76 66
8 0 1 -9 -17 -20z m8 -163 c-13 -13 -15 1 -4 30 7 17 8 17 11 -1 2 -10 -1 -23
-7 -29z m14 -597 c0 -13 -5 -25 -12 -27 -13 -5 -27 32 -18 47 11 18 30 5 30
-20z m-5 -138 c-19 -9 -45 -33 -58 -52 -21 -30 -23 -44 -19 -95 4 -46 3 -54
-5 -35 -14 37 -4 117 19 148 21 29 58 52 83 52 8 0 -1 -8 -20 -18z m77 -34
c-3 -8 -6 -5 -6 6 -1 11 2 17 5 13 3 -3 4 -12 1 -19z m-81 -135 c-11 -11 -19
6 -11 24 8 17 8 17 12 0 3 -10 2 -21 -1 -24z m9 -603 c0 -13 -5 -25 -12 -27
-13 -5 -27 32 -18 47 11 18 30 5 30 -20z m-10 -136 c-53 -27 -70 -61 -70 -136
0 -37 -3 -60 -7 -50 -23 59 7 167 54 189 35 18 57 14 23 -3z m83 -35 c-3 -8
-7 -3 -11 10 -4 17 -3 21 5 13 5 -5 8 -16 6 -23z m-82 -137 c-12 -11 -18 7
-10 30 l8 23 4 -23 c2 -13 1 -26 -2 -30z m12 -603 c-3 -26 -18 -29 -32 -6 -7
10 -5 21 4 32 17 20 33 6 28 -26z m-17 -137 c-51 -26 -73 -74 -68 -147 3 -36
2 -52 -3 -40 -15 36 -10 105 10 145 21 42 43 59 75 60 14 0 10 -5 -14 -18z
m86 -34 c-3 -8 -6 -5 -6 6 -1 11 2 17 5 13 3 -3 4 -12 1 -19z m-81 -136 c-12
-11 -18 7 -10 30 l8 23 4 -23 c2 -13 1 -26 -2 -30z m12 -595 c2 -19 -1 -27
-12 -27 -20 0 -29 16 -21 41 9 27 29 19 33 -14z m-25 -147 c-47 -28 -66 -72
-61 -137 3 -30 1 -48 -3 -41 -14 21 -10 107 6 138 17 32 51 60 75 60 8 0 1 -9
-17 -20z m8 -163 c-13 -13 -15 1 -4 30 7 17 8 17 11 -1 2 -10 -1 -23 -7 -29z
m14 -597 c0 -13 -5 -25 -11 -27 -14 -5 -25 22 -17 42 8 23 28 12 28 -15z m12
-126 c-4 -4 -17 -12 -29 -18 -12 -6 -33 -27 -46 -46 -20 -29 -23 -44 -20 -93
3 -39 1 -53 -5 -41 -5 9 -7 41 -5 71 5 58 29 100 69 120 26 14 46 17 36 7z
m60 -46 c-3 -8 -6 -5 -6 6 -1 11 2 17 5 13 3 -3 4 -12 1 -19z m-81 -135 c-11
-11 -17 4 -9 23 7 18 8 18 11 1 2 -10 1 -21 -2 -24z m9 -603 c0 -13 -5 -25
-11 -27 -14 -5 -25 22 -17 42 8 23 28 12 28 -15z m-10 -136 c-52 -27 -70 -61
-70 -136 0 -36 -3 -61 -7 -55 -4 7 -8 34 -8 60 0 79 46 146 100 146 8 0 2 -7
-15 -15z m1 -172 c-12 -11 -18 7 -10 30 l8 23 4 -23 c2 -13 1 -26 -2 -30z"/>
<path d="M14537 9067 c-4 -10 -7 -27 -7 -38 0 -11 -10 -39 -22 -62 -12 -23
-22 -44 -23 -47 0 -3 -14 -25 -31 -50 -91 -132 -125 -270 -94 -382 9 -31 8
-42 -6 -63 -14 -21 -15 -31 -6 -50 15 -32 38 -32 46 1 5 20 12 25 33 22 53 -6
90 -104 63 -167 -21 -52 -70 -53 -70 -3 0 20 3 23 9 13 5 -8 16 -11 25 -8 20
8 21 57 1 83 -15 19 -15 19 -35 -5 -26 -30 -28 -121 -4 -145 9 -9 20 -32 25
-52 6 -19 17 -38 25 -41 23 -8 28 4 10 22 -21 22 -20 32 5 45 11 6 29 26 40
43 l20 32 -6 -35 c-19 -104 -54 -163 -113 -194 -41 -21 -42 -21 -43 12 -1 17
-3 21 -6 9 -4 -14 -8 -16 -19 -6 -11 9 -13 5 -12 -27 1 -22 -2 -47 -6 -56 -6
-13 -4 -18 8 -18 9 0 16 -7 16 -15 0 -8 4 -15 9 -15 11 0 21 25 21 50 0 17 79
95 87 86 2 -2 -14 -30 -36 -61 -22 -32 -50 -83 -62 -114 -25 -67 -36 -191 -21
-245 9 -31 8 -43 -3 -60 -18 -25 -19 -58 -3 -74 19 -19 35 -14 42 13 9 34 48
34 75 -1 42 -53 36 -149 -12 -178 -20 -13 -37 5 -36 39 0 11 3 14 6 8 8 -22
32 -14 39 11 8 34 2 57 -19 70 -28 17 -47 -17 -47 -85 0 -41 5 -63 20 -82 11
-14 20 -31 20 -39 0 -8 6 -23 14 -34 12 -16 17 -17 28 -6 11 11 10 15 -4 23
-24 13 -23 36 1 44 11 3 29 20 40 38 l20 32 -5 -40 c-11 -71 -49 -141 -95
-174 -52 -38 -59 -38 -60 -3 -1 17 -3 21 -6 9 -4 -15 -7 -16 -20 -5 -14 12
-15 9 -9 -24 4 -22 2 -39 -4 -43 -16 -10 -12 -38 5 -31 10 4 15 -1 15 -14 0
-23 19 -27 21 -5 1 8 3 20 4 25 1 6 3 14 4 18 2 14 34 47 66 68 32 21 30 14
-11 -41 -38 -51 -83 -157 -93 -220 -8 -56 -1 -151 14 -175 3 -5 -1 -20 -9 -32
-20 -28 -20 -62 -1 -78 16 -13 35 -6 35 14 0 26 27 39 52 25 13 -7 26 -17 31
-23 16 -24 28 -89 22 -118 -14 -63 -76 -87 -74 -29 0 14 3 20 6 14 8 -22 32
-14 39 11 8 34 2 57 -19 70 -28 17 -47 -17 -47 -84 0 -42 5 -62 20 -78 11 -12
20 -30 20 -41 0 -11 7 -27 16 -36 13 -13 19 -13 31 -3 13 10 12 13 -6 20 -30
11 -26 29 14 61 19 15 35 35 35 44 0 9 3 14 6 11 9 -10 -25 -128 -47 -164 -20
-32 -75 -74 -98 -74 -6 0 -11 10 -11 21 0 17 -3 19 -13 10 -8 -6 -17 -7 -22
-3 -4 4 -5 -10 -1 -30 4 -24 3 -38 -4 -38 -5 0 -10 -7 -10 -15 0 -8 7 -15 15
-15 8 0 15 -9 15 -21 0 -11 5 -17 10 -14 6 3 10 17 10 31 0 24 69 104 90 104
5 0 -11 -30 -35 -67 -75 -112 -105 -238 -81 -338 13 -52 13 -62 0 -76 -19 -21
-18 -63 2 -80 13 -10 17 -10 25 2 5 8 9 19 9 26 0 37 65 22 86 -20 24 -45 23
-120 0 -146 -24 -26 -42 -27 -56 -1 -11 21 -8 24 22 21 23 -3 34 42 19 75 -30
66 -81 -24 -61 -110 5 -22 16 -43 24 -48 9 -5 16 -17 16 -28 0 -32 11 -50 31
-50 10 0 19 5 19 10 0 6 -7 10 -15 10 -9 0 -15 9 -15 25 0 15 6 25 14 25 8 0
24 12 35 26 19 24 21 24 21 7 0 -72 -53 -159 -117 -192 -30 -15 -33 -14 -33
10 0 17 -3 19 -13 10 -8 -6 -17 -7 -22 -3 -4 4 -5 -8 -3 -26 3 -18 1 -35 -4
-38 -14 -9 -9 -34 7 -34 8 0 15 -9 15 -21 0 -11 5 -17 10 -14 6 3 10 17 10 29
0 28 29 67 72 98 32 23 31 15 -8 -37 -53 -72 -104 -211 -104 -282 0 -16 6 -52
13 -80 11 -42 11 -54 0 -69 -27 -38 -5 -112 25 -82 7 7 12 20 12 30 0 18 24
24 55 12 24 -10 47 -61 47 -110 2 -71 -47 -122 -72 -75 -15 28 -13 32 14 25
19 -4 25 -1 30 20 8 31 -9 76 -28 76 -25 0 -39 -30 -40 -90 -1 -48 3 -63 22
-82 12 -14 22 -33 22 -44 0 -31 16 -48 36 -40 18 7 18 8 2 17 -19 11 -25 49
-8 49 6 0 23 12 37 28 l26 27 -7 -40 c-12 -65 -46 -125 -89 -156 -47 -34 -57
-36 -57 -9 0 11 -4 20 -10 20 -5 0 -10 -6 -10 -12 0 -9 -4 -8 -11 2 -8 11 -9
6 -5 -22 2 -21 0 -40 -5 -43 -16 -10 -11 -38 6 -31 11 4 15 -2 15 -22 0 -21 2
-24 10 -12 5 8 10 25 10 36 0 28 29 64 70 88 36 21 36 18 -19 -57 -72 -101
-107 -257 -78 -349 13 -40 13 -49 1 -59 -19 -15 -18 -73 1 -89 13 -11 17 -8
28 19 16 44 59 44 87 -1 28 -45 27 -131 0 -158 -25 -25 -37 -25 -50 -1 -16 31
-13 46 6 30 14 -11 18 -10 30 6 18 24 18 46 0 71 -12 15 -18 17 -33 8 -39 -24
-41 -134 -3 -169 11 -10 20 -30 20 -45 0 -27 22 -46 41 -34 13 8 11 24 -3 21
-27 -5 -17 32 18 67 l37 37 -7 -41 c-10 -66 -50 -133 -95 -163 -48 -32 -51
-33 -51 -8 0 11 -4 23 -10 26 -5 3 -10 -2 -10 -12 0 -15 -2 -16 -10 -3 -13 22
-22 6 -11 -21 6 -18 5 -30 -5 -43 -14 -20 -9 -40 7 -30 6 3 13 -3 16 -15 7
-28 23 -17 23 16 0 17 13 39 40 65 23 21 45 38 50 38 4 0 -11 -29 -35 -64 -80
-119 -108 -236 -85 -346 10 -47 10 -63 1 -74 -7 -8 -11 -30 -9 -48 4 -45 32
-49 47 -7 8 22 15 30 27 25 8 -3 20 -6 25 -6 5 0 18 -15 29 -33 34 -55 22
-159 -20 -170 -24 -6 -40 11 -40 43 1 24 1 24 15 6 19 -26 36 -10 37 33 1 37
-14 56 -36 48 -41 -16 -46 -129 -8 -170 11 -12 22 -33 24 -47 2 -17 10 -26 26
-28 12 -2 22 1 22 7 0 6 -7 11 -15 11 -26 0 -16 29 21 67 l37 37 -7 -40 c-4
-21 -17 -59 -29 -84 -11 -25 -21 -52 -22 -60 -1 -9 -19 -40 -40 -69 -113 -157
-131 -431 -29 -452 43 -8 54 -17 70 -55 30 -72 7 -159 -39 -152 -16 2 -23 11
-25 33 -3 28 -2 29 11 11 20 -27 37 -11 37 34 0 28 -5 42 -19 49 -30 17 -46
-12 -46 -85 0 -51 4 -67 22 -86 24 -26 21 -36 -18 -57 -49 -24 -62 -116 -29
-190 19 -41 19 -44 3 -57 -17 -12 -17 -14 -2 -29 15 -16 15 -19 0 -48 -20 -40
-19 -146 1 -201 13 -35 13 -42 -4 -74 -21 -42 -14 -60 14 -36 16 16 21 16 28
4 16 -25 12 -70 -6 -70 -11 0 -14 -6 -9 -20 4 -12 2 -20 -5 -20 -16 0 -24 30
-11 43 15 15 14 27 -4 27 -21 0 -20 -73 1 -94 21 -21 30 -20 48 6 21 29 20
107 0 137 -11 16 -13 26 -6 33 6 6 8 16 6 22 -2 6 9 16 25 23 23 8 31 19 36
47 8 40 -8 91 -31 100 -16 6 -20 -29 -4 -39 15 -9 12 -51 -5 -65 -9 -7 -18
-10 -22 -6 -3 3 -1 6 5 6 14 0 16 39 2 60 -8 13 -11 12 -24 -5 -14 -19 -15
-19 -21 8 -9 34 0 86 21 115 20 30 32 28 26 -4 -4 -24 -3 -25 18 -14 57 30 97
-40 87 -155 -4 -57 -47 -165 -47 -120 0 11 7 31 16 43 8 12 14 28 11 35 -6 19
-38 -39 -44 -80 -3 -26 2 -50 15 -76 11 -20 18 -46 15 -57 -8 -30 5 -70 23
-70 13 0 14 3 4 14 -18 23 -9 61 15 61 11 0 19 -6 17 -13 -1 -7 4 -20 13 -28
8 -9 15 -28 15 -44 0 -16 5 -32 11 -36 8 -5 10 12 7 60 -3 51 -9 71 -26 88
-12 13 -22 17 -22 10 0 -26 -37 -11 -55 22 -17 31 -17 35 -2 50 8 9 25 42 37
73 28 76 25 167 -10 238 -13 27 -23 57 -23 66 1 10 -7 34 -18 55 -10 21 -19
31 -19 21 0 -9 -4 -17 -10 -17 -5 0 -10 -9 -10 -20 0 -13 -7 -20 -20 -20 -25
0 -60 66 -60 115 0 33 7 45 54 82 33 27 53 1 35 -45 -7 -15 -13 -22 -16 -14
-3 6 -11 12 -19 12 -19 0 -18 -44 2 -60 26 -22 49 11 50 74 0 29 4 58 8 64 4
7 1 12 -8 12 -24 0 -20 47 4 55 11 4 28 21 38 38 23 44 23 179 -1 224 -16 30
-16 34 3 75 24 53 25 124 4 178 -16 39 -16 42 4 63 16 17 18 26 11 40 -6 9
-15 15 -20 12 -5 -4 -12 7 -15 24 -8 38 -21 40 -30 4 -4 -16 -14 -34 -23 -40
-15 -12 -14 -14 2 -27 22 -17 22 -29 -3 -51 -11 -10 -20 -23 -20 -29 0 -6 -6
-23 -14 -38 -8 -15 -14 -46 -13 -70 2 -40 4 -43 33 -46 27 -3 33 1 38 22 7 28
-1 74 -16 92 -12 16 1 44 22 44 12 0 21 -14 30 -46 17 -60 -1 -121 -42 -144
-25 -13 -31 -13 -55 0 -42 24 -57 79 -45 167 11 82 37 140 87 198 32 36 37 38
46 23 5 -10 17 -18 24 -18 18 0 18 1 1 35 -11 21 -12 34 -3 63 6 20 12 107 12
192 0 125 -3 161 -16 184 -15 28 -15 32 2 70 23 50 24 134 4 183 -15 34 -14
39 3 63 20 27 19 50 -4 50 -8 0 -17 13 -20 30 -11 52 -32 28 -25 -27 1 -7 -7
-13 -19 -13 -23 0 -27 -18 -5 -26 17 -7 21 -44 5 -44 -19 0 -60 -110 -56 -147
5 -41 9 -46 37 -48 14 -1 24 7 30 23 11 28 2 83 -13 93 -14 9 0 49 17 49 8 0
21 -13 30 -30 32 -62 8 -153 -43 -165 -75 -16 -110 50 -92 175 10 71 46 150
91 199 27 30 33 32 41 18 5 -10 15 -17 23 -17 12 0 12 5 3 25 -8 19 -8 46 1
108 22 158 18 286 -12 343 -12 23 -12 31 5 65 21 45 24 135 5 182 -15 35 -12
56 9 73 16 13 8 44 -11 44 -7 0 -16 14 -20 30 -8 36 -25 30 -25 -9 0 -20 -6
-30 -20 -34 -23 -6 -27 -27 -6 -27 25 0 25 -27 0 -51 -13 -12 -24 -30 -24 -39
0 -8 -7 -26 -16 -38 -12 -17 -13 -32 -7 -64 7 -37 12 -43 35 -45 22 -1 28 3
33 26 7 33 -3 83 -19 93 -12 8 2 39 22 46 16 5 42 -52 42 -93 0 -93 -80 -141
-130 -78 -20 25 -22 37 -18 118 6 103 25 157 83 223 l37 42 18 -22 c24 -30 33
-20 18 20 -9 23 -9 46 0 94 27 149 23 290 -12 356 -12 22 -11 30 6 58 16 27
19 46 15 101 -3 38 -8 83 -12 101 -6 25 -3 38 10 52 14 16 15 22 5 35 -7 8
-16 13 -20 10 -4 -3 -11 12 -15 32 -5 27 -9 33 -16 22 -5 -8 -9 -24 -9 -36 0
-13 -6 -23 -14 -23 -26 0 -28 -20 -5 -38 l22 -18 -27 -27 c-14 -14 -26 -33
-26 -42 0 -9 -6 -26 -14 -38 -8 -13 -11 -38 -9 -64 5 -39 8 -43 33 -43 22 0
30 6 37 27 9 26 -5 93 -19 93 -12 0 4 39 18 44 20 8 44 -45 44 -99 0 -38 -5
-52 -29 -76 -37 -37 -55 -37 -93 2 -31 30 -31 30 -26 122 5 101 16 129 80 215
39 52 40 53 55 33 8 -12 20 -21 28 -21 11 0 11 5 -3 29 -14 26 -15 36 -2 97
20 100 18 277 -4 337 -16 45 -16 51 -1 83 20 42 21 116 4 184 -11 44 -11 51 5
69 19 21 14 41 -8 41 -8 0 -17 16 -21 37 -5 27 -9 33 -16 22 -5 -8 -9 -27 -9
-43 0 -16 -3 -26 -7 -23 -3 4 -12 2 -19 -4 -11 -9 -9 -15 9 -29 l22 -18 -28
-26 c-15 -14 -27 -35 -27 -47 0 -12 -6 -30 -14 -38 -10 -11 -13 -29 -9 -59 5
-38 8 -42 33 -42 18 0 30 7 37 23 12 25 7 74 -8 83 -5 3 -9 16 -9 30 0 33 33
32 48 -1 27 -59 5 -156 -39 -170 -31 -10 -76 13 -90 46 -8 20 -10 57 -6 108 6
89 35 159 92 222 31 34 35 36 40 18 4 -10 15 -19 26 -19 19 0 19 1 3 25 -15
23 -15 33 -3 103 20 113 18 276 -4 334 -16 41 -17 50 -4 75 25 50 29 99 12
168 -16 61 -16 68 -1 91 18 26 14 44 -8 44 -8 0 -16 15 -20 33 -5 25 -9 29
-16 17 -5 -8 -10 -25 -10 -38 0 -13 -4 -21 -9 -17 -6 3 -15 -4 -21 -15 -8 -16
-8 -20 4 -20 27 0 28 -20 2 -51 -14 -17 -26 -38 -26 -47 0 -9 -6 -25 -14 -34
-8 -11 -10 -32 -7 -59 5 -36 10 -42 33 -45 22 -2 28 3 37 27 10 30 8 45 -11
86 -13 26 -4 53 16 53 27 0 49 -88 34 -133 -16 -46 -37 -67 -69 -67 -113 0
-103 240 15 376 29 33 35 36 41 22 4 -10 16 -18 26 -18 18 0 19 1 3 25 -15 22
-15 32 -3 92 20 99 18 298 -4 347 -16 36 -16 43 -2 72 25 53 28 107 9 173 -16
58 -16 62 1 81 20 22 13 55 -10 46 -11 -4 -15 2 -15 24 0 16 -4 31 -9 34 -10
7 -21 -17 -21 -45 0 -10 -7 -19 -15 -19 -8 0 -15 -7 -15 -15 0 -8 5 -15 10
-15 23 0 20 -29 -4 -53 -14 -15 -26 -34 -26 -45 0 -10 -5 -23 -11 -29 -5 -5
-9 -32 -7 -59 3 -45 5 -49 31 -51 46 -3 57 49 25 114 -13 25 -5 53 15 53 19 0
42 -56 42 -102 0 -96 -106 -136 -141 -53 -34 81 -5 215 66 309 40 53 45 56 57
40 7 -10 20 -19 28 -20 18 -3 18 -4 -1 35 -14 28 -14 38 -2 84 20 79 17 302
-4 350 -16 35 -16 41 -2 68 25 49 29 120 9 178 -16 48 -16 53 0 77 17 27 14
56 -6 52 -7 -2 -16 13 -22 32 l-10 35 -11 -35 c-5 -19 -17 -41 -25 -48 -14
-11 -14 -13 2 -23 18 -11 24 -39 7 -39 -6 0 -18 -17 -26 -37 -9 -21 -20 -46
-25 -55 -11 -21 -12 -79 -1 -93 14 -22 53 -15 62 11 10 26 3 81 -11 90 -15 9
-10 41 6 48 43 16 67 -114 31 -169 -15 -22 -23 -26 -59 -23 -37 3 -44 8 -60
38 -15 28 -17 49 -13 109 7 85 35 155 88 218 34 40 36 41 51 22 26 -30 36 -22
22 17 -10 29 -9 49 2 103 15 70 15 124 0 88z m-75 -484 c7 -25 -1 -43 -18 -43
-8 0 -14 10 -14 23 0 38 24 52 32 20z m28 -173 c34 -36 48 -105 32 -153 -9
-28 -9 -26 -5 18 7 65 -15 118 -59 145 -24 14 -28 20 -15 20 11 0 32 -14 47
-30z m-123 -12 c-3 -8 -6 -5 -6 6 -1 11 2 17 5 13 3 -3 4 -12 1 -19z m93 -135
c0 -7 -4 -13 -10 -13 -5 0 -10 12 -10 28 0 21 2 24 10 12 5 -8 10 -21 10 -27z
m0 -603 c0 -20 -5 -30 -15 -30 -10 0 -15 10 -15 30 0 20 5 30 15 30 10 0 15
-10 15 -30z m-7 -134 c50 -20 71 -60 71 -131 0 -33 -5 -69 -13 -80 l-13 -20 7
20 c29 90 7 164 -60 202 -45 25 -41 30 8 9z m0 -156 c3 -11 1 -20 -4 -20 -5 0
-9 9 -9 20 0 11 2 20 4 20 2 0 6 -9 9 -20z m7 -614 c0 -31 -16 -42 -28 -19
-12 22 -5 43 14 43 8 0 14 -10 14 -24z m19 -150 c8 -6 23 -31 34 -55 20 -45
18 -109 -4 -141 -7 -11 -7 -6 -2 15 20 78 4 137 -50 176 -31 23 -36 29 -17 24
14 -4 31 -13 39 -19z m-118 -29 c-10 -9 -11 -8 -5 6 3 10 9 15 12 12 3 -3 0
-11 -7 -18z m86 -129 c-3 -7 -5 -2 -5 12 0 14 2 19 5 13 2 -7 2 -19 0 -25z
m13 -603 c0 -31 -16 -41 -29 -18 -6 11 -6 24 0 36 13 23 29 13 29 -18z m3
-136 c43 -19 78 -118 59 -169 -7 -20 -9 -14 -9 32 0 65 -17 99 -66 128 -34 21
-24 27 16 9z m-102 -36 c-12 -20 -14 -14 -5 12 4 9 9 14 11 11 3 -2 0 -13 -6
-23z m89 -125 c0 -19 -2 -20 -10 -8 -13 19 -13 30 0 30 6 0 10 -10 10 -22z m8
-611 c2 -19 -1 -27 -12 -27 -20 0 -29 16 -21 41 9 27 29 19 33 -14z m10 -143
c12 -8 29 -29 38 -46 19 -37 21 -117 5 -144 -11 -17 -11 -16 -5 5 11 41 5 112
-11 138 -9 13 -30 33 -48 43 -18 11 -25 20 -17 20 9 0 26 -7 38 -16z m-105
-19 c-3 -9 -8 -14 -10 -11 -3 3 -2 9 2 15 9 16 15 13 8 -4z m87 -136 c0 -11
-4 -17 -10 -14 -5 3 -10 15 -10 26 0 11 5 17 10 14 6 -3 10 -15 10 -26z m5
-609 c0 -13 -5 -25 -11 -27 -14 -5 -25 22 -17 42 8 23 28 12 28 -15z m16 -143
c41 -31 66 -154 40 -196 -5 -7 -6 17 -3 58 l5 72 -46 43 c-40 39 -38 54 4 23z
m-108 -22 c-3 -9 -8 -14 -10 -11 -3 3 -2 9 2 15 9 16 15 13 8 -4z m87 -136 c0
-11 -4 -17 -10 -14 -5 3 -10 15 -10 26 0 11 5 17 10 14 6 -3 10 -15 10 -26z
m5 -609 c0 -27 -22 -39 -31 -16 -8 22 3 49 19 43 6 -2 12 -14 12 -27z m4 -135
c16 -8 36 -30 45 -49 16 -35 22 -122 8 -143 -4 -6 -7 19 -7 55 0 75 -18 109
-70 136 -16 8 -24 15 -17 15 7 1 26 -6 41 -14z m-102 -37 c-3 -8 -6 -5 -6 6
-1 11 2 17 5 13 3 -3 4 -12 1 -19z m93 -131 c0 -10 -4 -15 -10 -12 -5 3 -10
18 -10 33 0 21 2 24 10 12 5 -8 10 -23 10 -33z m5 -602 c0 -11 -8 -21 -17 -23
-14 -3 -18 3 -18 23 0 20 4 26 18 23 9 -2 17 -12 17 -23z m11 -140 c45 -31 68
-132 44 -190 -5 -12 -6 3 -3 40 5 73 -16 120 -67 147 -25 13 -29 18 -15 18 11
0 30 -7 41 -15z m-16 -162 c0 -7 -4 -13 -10 -13 -5 0 -10 12 -10 28 0 21 2 24
10 12 5 -8 10 -21 10 -27z"/>
<path d="M14371 8911 c-1 -24 -1 -24 -16 -5 -14 19 -14 19 -15 -1 0 -11 4 -26
9 -34 6 -9 4 -19 -5 -28 -18 -19 -18 -33 1 -33 8 0 15 -7 15 -15 0 -30 20 -14
30 25 8 29 22 49 52 70 48 35 45 39 -7 9 -38 -22 -49 -19 -58 16 -4 17 -5 16
-6 -4z"/>
<path d="M5805 8849 c926 -56 2443 -56 3230 0 61 5 -671 8 -1625 8 -954 0
-1676 -4 -1605 -8z"/>
<path d="M14361 2563 c-1 -7 -8 -10 -16 -7 -17 7 -20 -13 -6 -35 6 -9 4 -22
-5 -36 -16 -24 -10 -37 12 -28 8 3 14 2 13 -3 -1 -5 -1 -16 0 -24 2 -24 21 9
21 37 0 14 17 36 45 59 53 45 52 56 -1 20 l-38 -26 -12 28 c-7 15 -13 22 -13
15z"/>
<path d="M307 1193 c-11 -11 -8 -78 4 -90 12 -12 39 -7 39 7 0 4 -10 10 -21
13 -19 5 -21 11 -15 41 7 36 5 42 -7 29z"/>
<path d="M14554 1157 c7 -31 -1 -57 -20 -57 -8 0 -14 -4 -14 -10 0 -16 37 -11
44 6 10 26 7 72 -5 80 -8 5 -10 -1 -5 -19z"/>
<path d="M400 1044 c14 -36 12 -63 -5 -80 -11 -12 -12 -19 -3 -33 9 -15 7 -26
-11 -55 -13 -20 -29 -36 -37 -36 -8 0 -14 -7 -14 -15 0 -30 53 3 77 49 23 45
18 196 -8 196 -5 0 -4 -11 1 -26z"/>
<path d="M14451 1004 c-20 -90 4 -170 59 -199 27 -14 30 -14 30 0 0 8 -7 15
-15 15 -26 0 -56 60 -50 98 4 21 2 32 -6 32 -8 0 -10 16 -5 55 3 30 5 55 3 55
-2 0 -9 -25 -16 -56z"/>
<path d="M434 927 c-4 -23 -8 -46 -8 -52 -1 -5 -3 -12 -6 -15 -3 -3 -14 -18
-23 -33 -10 -16 -34 -38 -52 -49 -27 -15 -32 -22 -22 -32 9 -10 17 -5 39 25
17 23 39 41 55 44 72 16 67 22 60 -67 l-7 -80 23 33 c13 19 20 37 15 40 -4 3
-1 14 8 25 15 18 15 18 9 -4 -6 -21 -5 -21 18 -11 24 11 24 12 8 49 -9 21 -20
36 -24 33 -5 -3 -8 3 -7 13 4 35 0 54 -11 54 -11 0 -39 25 -39 35 0 4 -6 13
-14 20 -12 12 -15 8 -22 -28z m8 -49 c-7 -7 -12 -8 -12 -2 0 14 12 26 19 19 2
-3 -1 -11 -7 -17z m18 -23 c-7 -9 -15 -13 -18 -10 -3 2 1 11 8 20 7 9 15 13
18 10 3 -2 -1 -11 -8 -20z m45 -75 c-4 -12 -9 -19 -12 -17 -3 3 -2 15 2 27 4
12 9 19 12 17 3 -3 2 -15 -2 -27z"/>
<path d="M14412 938 c-7 -7 -12 -16 -12 -21 0 -12 -21 -32 -44 -40 -15 -6 -17
-14 -12 -39 3 -17 3 -28 -1 -25 -4 4 -15 -10 -24 -30 -13 -27 -14 -39 -6 -42
7 -2 21 -11 31 -20 18 -15 18 -15 7 7 -7 13 -10 26 -8 29 6 6 28 -33 25 -44
-1 -4 5 -21 14 -38 16 -29 16 -28 11 54 -6 77 -5 84 11 78 10 -4 27 -7 38 -7
12 0 38 -18 58 -40 32 -35 39 -38 50 -25 10 12 9 15 -5 15 -25 0 -110 92 -97
105 4 4 1 5 -7 3 -7 -2 -16 3 -19 11 -3 9 0 11 7 6 9 -5 10 3 5 32 -8 46 -8
45 -22 31z m14 -115 c-4 -4 -11 -1 -16 7 -16 25 -11 35 7 17 9 -9 13 -20 9
-24z m-46 -73 c0 -13 -1 -13 -10 0 -5 8 -10 22 -10 30 0 13 1 13 10 0 5 -8 10
-22 10 -30z"/>
<path d="M302 889 c-49 -18 -85 -136 -64 -208 21 -67 74 -81 87 -22 9 40 -2
71 -25 71 -24 0 -33 -26 -15 -44 19 -18 19 -26 1 -26 -37 0 -44 111 -11 170
13 24 14 24 15 4 0 -12 6 -27 14 -33 12 -10 14 -6 13 20 -2 27 2 34 22 39 14
3 26 10 28 17 5 14 -38 22 -65 12z"/>
<path d="M752 873 c-19 -9 -36 -22 -39 -30 -8 -21 -20 -15 -27 12 -4 14 -13
25 -21 25 -17 0 -19 -23 -5 -51 8 -13 7 -25 0 -39 -15 -29 -40 -25 -40 5 0 16
-6 25 -15 25 -8 0 -15 4 -15 9 0 17 20 23 35 11 16 -13 19 -3 9 24 -17 45 -71
-13 -60 -66 3 -17 11 -37 17 -45 17 -20 56 -16 72 8 11 14 17 17 22 9 6 -9 10
-9 16 1 6 9 9 0 9 -26 0 -47 23 -85 51 -85 21 0 39 35 39 73 -1 22 -1 22 -21
-3 -20 -24 -21 -24 -35 -5 -8 10 -14 24 -13 29 0 7 2 7 5 0 3 -7 14 -9 25 -7
16 4 19 11 14 27 -16 49 -12 61 19 59 30 -2 45 -18 57 -59 5 -17 3 -21 -11
-17 -16 4 -17 0 -7 -40 12 -52 5 -84 -24 -120 -30 -39 -79 -37 -113 4 -14 17
-26 35 -26 40 0 5 -4 9 -9 9 -5 0 -8 -11 -7 -24 0 -13 4 -22 8 -20 3 2 16 -9
27 -25 11 -15 34 -34 51 -41 28 -11 34 -11 58 7 15 11 36 34 47 51 13 21 26
31 38 28 9 -2 17 2 17 9 0 8 7 21 16 30 16 15 15 18 -5 45 -25 34 -27 60 -6
100 22 43 52 56 76 34 10 -9 19 -26 19 -37 0 -11 5 -35 12 -53 9 -26 9 -36 -2
-49 -13 -16 -15 -16 -26 0 -7 10 -10 31 -7 51 6 35 -4 43 -25 22 -27 -27 1
-108 38 -108 6 0 19 9 30 20 39 39 17 180 -31 195 -28 9 -54 -2 -69 -30 -16
-30 -30 -32 -30 -5 0 11 -4 20 -10 20 -5 0 -10 -7 -10 -15 0 -21 -15 -19 -31
4 -20 28 -50 33 -87 14z"/>
<path d="M14507 873 c-13 -13 -7 -21 24 -32 28 -10 31 -14 26 -41 -8 -39 0
-38 18 2 l13 33 17 -58 c18 -61 14 -107 -11 -128 -11 -9 -18 -9 -26 -1 -9 9
-8 12 5 12 19 0 24 44 7 55 -16 10 -40 -15 -40 -41 0 -25 19 -74 29 -74 20 0
52 36 62 69 16 55 -4 146 -41 183 -27 26 -68 37 -83 21z"/>
<path d="M13872 863 c-35 -14 -55 -119 -32 -177 13 -36 62 -36 78 -1 15 33 15
47 -1 70 -20 27 -39 11 -26 -22 12 -32 -12 -66 -33 -45 -9 9 -9 21 1 54 7 24
16 54 19 68 10 35 45 38 71 5 28 -37 38 -95 19 -109 -24 -17 -31 -51 -13 -66
8 -7 15 -18 15 -25 0 -8 8 -11 19 -8 13 3 21 -1 25 -14 12 -38 56 -73 90 -73
27 0 41 9 70 40 20 22 36 48 36 57 0 11 -9 4 -25 -20 -30 -43 -68 -56 -104
-36 -40 22 -53 56 -47 121 5 48 3 56 -9 52 -18 -7 -18 -6 -4 35 13 36 41 55
69 46 21 -7 27 -30 10 -40 -5 -3 -10 -14 -10 -24 0 -24 37 -35 43 -12 4 13 5
14 6 0 0 -8 -5 -24 -13 -34 -14 -19 -15 -19 -35 5 -20 25 -20 25 -21 3 0 -34
21 -73 40 -73 26 0 41 23 50 77 4 26 8 41 9 33 1 -13 2 -13 11 0 8 13 12 11
26 -8 41 -58 115 17 82 85 -17 36 -52 38 -56 3 -3 -21 -2 -22 12 -11 15 13 36
8 36 -10 0 -5 -7 -9 -15 -9 -9 0 -15 -9 -15 -25 0 -30 -25 -34 -40 -6 -7 13
-7 28 0 46 13 35 13 45 -3 45 -8 0 -19 -12 -26 -27 -11 -24 -14 -26 -22 -10
-11 20 -60 47 -84 47 -10 0 -30 -14 -46 -31 -26 -28 -29 -29 -29 -10 0 28 -16
27 -24 -1 -6 -23 -7 -23 -18 -3 -22 38 -52 52 -86 38z"/>
<path d="M376 760 c-22 -26 -26 -41 -26 -91 0 -54 2 -59 25 -65 49 -12 90 57
83 141 -3 35 -6 40 -29 43 -19 2 -33 -5 -53 -28z"/>
<path d="M14417 763 c-12 -12 -7 -93 7 -128 17 -39 44 -56 75 -48 22 5 23 10
19 69 -3 49 -9 69 -28 89 -22 24 -59 33 -73 18z"/>
<path d="M516 711 c-28 -31 -60 -151 -36 -136 6 3 10 16 10 28 0 12 9 37 20
55 18 28 23 32 36 21 12 -10 16 -9 21 9 6 26 12 27 41 6 12 -8 22 -11 22 -5 0
16 -43 41 -71 41 -14 0 -34 -9 -43 -19z"/>
<path d="M14295 712 c-23 -5 -55 -31 -55 -45 0 -6 8 -3 18 6 25 23 39 21 45
-5 5 -17 9 -19 21 -9 23 19 28 -1 30 -104 1 -78 4 -98 22 -122 26 -35 68 -51
92 -37 27 17 48 88 36 121 -13 38 -51 44 -60 9 -8 -34 -1 -61 16 -61 10 0 14
8 12 25 -3 19 -1 22 8 13 17 -16 5 -60 -21 -73 -16 -9 -26 -8 -44 4 -32 21
-51 56 -31 56 7 0 17 7 20 16 9 23 8 24 -14 24 -16 0 -20 7 -20 34 0 19 -3 43
-6 53 -5 15 -4 15 5 3 6 -8 11 -27 11 -42 0 -16 5 -28 10 -28 13 0 13 4 -4 68
-20 75 -48 103 -91 94z"/>
<path d="M627 661 c-14 -18 -32 -28 -48 -27 -19 1 -24 -4 -26 -24 -1 -14 0
-19 3 -12 3 6 12 12 20 12 10 0 14 -12 14 -40 0 -22 -4 -40 -9 -40 -5 0 -11
-9 -14 -21 -3 -11 -15 -23 -26 -26 -12 -3 -21 -9 -21 -14 0 -14 21 -21 46 -15
29 8 62 72 46 88 -13 13 2 75 24 99 24 27 41 24 59 -12 22 -42 31 -29 10 14
-22 47 -49 53 -78 18z"/>
<path d="M14192 663 c-14 -5 -42 -55 -42 -75 0 -7 9 2 20 20 26 42 54 42 76 0
11 -21 14 -43 10 -70 -11 -65 31 -120 78 -102 9 3 16 13 16 21 0 8 -5 11 -10
8 -15 -9 -40 14 -40 37 0 10 -4 17 -9 14 -10 -7 -19 30 -13 57 4 22 32 23 32
0 0 -9 3 -14 6 -10 4 3 3 18 0 33 -6 21 -11 25 -30 20 -17 -4 -28 1 -45 24
-22 30 -26 32 -49 23z"/>
<path d="M439 611 c-10 -17 -13 -34 -8 -42 4 -7 10 -11 12 -9 4 5 17 80 14 80
-1 0 -9 -13 -18 -29z"/>
<path d="M508 630 c-4 -8 -9 -31 -10 -50 -2 -27 -7 -34 -20 -32 -11 2 -18 -3
-18 -12 0 -8 8 -19 18 -25 21 -12 8 -39 -31 -61 -23 -13 -28 -13 -46 4 -21 19
-29 76 -11 76 5 0 9 -10 7 -21 -3 -31 21 -35 28 -6 8 28 -9 67 -28 67 -38 0
-49 -67 -21 -126 13 -27 22 -34 44 -34 64 0 104 74 98 180 -2 30 -7 48 -10 40z"/>
<path d="M230 612 c0 -13 12 -34 26 -47 26 -24 26 -25 5 -25 -25 0 -27 -13 -5
-34 14 -15 14 -17 0 -32 -18 -17 -22 -54 -6 -54 5 0 16 12 24 28 14 25 15 25
16 5 0 -36 20 -37 21 -1 l1 33 8 -28 c10 -32 28 -57 41 -57 5 0 0 17 -11 37
-24 45 -26 101 -5 117 14 10 14 13 0 34 -20 27 -39 29 -30 2 5 -15 2 -20 -12
-20 -23 0 -35 9 -56 40 l-17 24 0 -22z"/>
<path d="M14630 608 c0 -21 -33 -48 -59 -48 -16 0 -21 4 -18 15 12 28 -12 25
-28 -4 -19 -38 -19 -41 1 -41 14 0 16 -8 10 -47 -3 -26 -13 -58 -22 -71 -9
-13 -13 -26 -10 -30 11 -10 34 21 44 58 l10 35 2 -40 2 -40 12 28 12 28 12
-26 c6 -14 16 -25 22 -25 15 0 12 32 -5 57 -13 18 -13 22 0 33 23 19 18 30
-12 30 l-28 1 27 16 c26 16 47 67 34 80 -3 4 -6 0 -6 -9z"/>
<path d="M14414 597 c3 -10 6 -28 6 -38 0 -11 5 -17 10 -14 15 9 12 28 -6 51
-14 17 -15 17 -10 1z"/>
<path d="M641 570 c-1 -14 3 -31 8 -38 12 -19 45 -11 50 13 3 16 1 17 -12 7
-13 -11 -18 -9 -31 15 l-15 28 0 -25z"/>
<path d="M14212 579 c3 -8 1 -25 -3 -38 -7 -18 -12 -21 -23 -12 -7 6 -16 8
-19 4 -9 -9 12 -33 29 -33 28 0 46 71 22 86 -7 5 -9 2 -6 -7z"/>
</g>
</svg>
